<svg width="30" height="28" viewBox="0 0 30 28" fill="none" xmlns="http://www.w3.org/2000/svg">
<path fill-rule="evenodd" clip-rule="evenodd" d="M10.2009 3.45076C10.2009 1.49496 10.2009 0.895072 15 0.895072L15.0853 0.895069C18.3226 0.894875 19.7991 0.894787 19.7991 3.45076C19.7991 3.84546 20.1397 4.07456 21.0974 4.19502C21.4854 4.19937 21.8676 4.22828 22.2423 4.28026C22.7245 4.29955 23.2918 4.308 23.9557 4.308C29.3404 4.308 29.9972 4.92769 29.9972 10.007C29.9972 10.9597 30.0085 11.7533 29.9611 12.4143C29.9832 12.6714 29.9945 12.9316 29.9945 13.1944V16.6057H29.9972V20.9123C29.9972 23.2733 30.0753 24.7353 29.4032 25.64C28.2447 27.1997 24.8575 27.1038 15 27.1038C5.14248 27.1038 1.75525 27.1997 0.596793 25.64C-0.0752584 24.7353 0.00277116 23.2733 0.00277116 20.9123V18.2158C0.000927313 18.1408 0 18.0656 0 17.9902V13.1945C0 12.9196 0.0123161 12.6477 0.0364265 12.3792C-0.00810591 11.7253 0.00277116 10.9429 0.00277116 10.007C0.00277116 4.92769 0.65965 4.308 6.04426 4.308C6.70463 4.308 7.26939 4.29964 7.74989 4.28057C8.12732 4.22812 8.51223 4.19908 8.90311 4.19496C9.86038 4.07447 10.2009 3.84539 10.2009 3.45076ZM17.6399 4.19445H12.3601C11.5458 4.0544 11.4007 3.7506 11.4007 3.10822C11.4007 2.04162 11.8008 1.90845 15 1.90845C18.1992 1.90845 18.5993 2.04162 18.5993 3.10822C18.5993 3.7506 18.4542 4.0544 17.6399 4.19445Z" fill="#151630"/>
</svg>
