<svg width="30" height="27" viewBox="0 0 30 27" fill="none" xmlns="http://www.w3.org/2000/svg">
<path fill-rule="evenodd" clip-rule="evenodd" d="M15 0.395072C10.2009 0.395072 10.2009 0.994961 10.2009 2.95076C10.2009 3.34539 9.86038 3.57447 8.90311 3.69496C8.51223 3.69908 8.12732 3.72812 7.74989 3.78057C7.26939 3.79964 6.70463 3.808 6.04426 3.808C0.65965 3.808 0.00277116 4.42769 0.00277116 9.50695C0.00277116 9.66478 0.00246185 9.81824 0.00216109 9.96746C0.000678376 10.7031 -0.000596292 11.3355 0.0364265 11.8792C0.0123161 12.1477 0 12.4196 0 12.6945V17.4902C0 17.5656 0.000927313 17.6408 0.00277116 17.7158V20.4123C0.00277116 20.6431 0.00202584 20.8653 0.00130826 21.0791C-0.00531638 23.0538 -0.00957674 24.3237 0.596793 25.14C1.68948 26.6111 4.76502 26.6094 13.3827 26.6044C13.9015 26.6041 14.4403 26.6038 15 26.6038C15.5597 26.6038 16.0985 26.6041 16.6173 26.6044C25.235 26.6094 28.3105 26.6111 29.4032 25.14C30.0096 24.3237 30.0053 23.0538 29.9987 21.0791C29.998 20.8653 29.9972 20.6431 29.9972 20.4123V16.1057H29.9945V12.6944C29.9945 12.4316 29.9832 12.1714 29.9611 11.9143C30.0007 11.3628 29.9994 10.719 29.9978 9.96747C29.9975 9.81825 29.9972 9.66479 29.9972 9.50695C29.9972 4.42769 29.3404 3.808 23.9557 3.808C23.2918 3.808 22.7245 3.79955 22.2423 3.78026C21.8676 3.72828 21.4854 3.69937 21.0974 3.69502C20.1397 3.57456 19.7991 3.34546 19.7991 2.95076C19.7991 0.394787 18.3226 0.394875 15.0853 0.395069L15 0.395072ZM11.4007 2.60822C11.4007 3.2506 11.5458 3.5544 12.3601 3.69445H17.6399C18.4542 3.5544 18.5993 3.2506 18.5993 2.60822C18.5993 1.54162 18.1992 1.40845 15 1.40845C11.8008 1.40845 11.4007 1.54162 11.4007 2.60822ZM16.9324 8.82757L20.2468 12.127C20.3427 12.2224 20.3962 12.3513 20.3962 12.4858V20.8612C20.3962 21.4221 19.9399 21.8764 19.3764 21.8764H11.2179C10.6545 21.8764 10.1981 21.4221 10.1981 20.8612V9.69404C10.1981 9.13314 10.6545 8.67884 11.2179 8.67884H16.5719C16.7071 8.67884 16.8366 8.73214 16.9324 8.82757ZM16.317 12.232C16.317 12.5122 16.5454 12.7396 16.8269 12.7396H19.4254L16.317 9.64531V12.232Z" fill="#DB3C3C"/>
</svg>
